<svg xmlns="http://www.w3.org/2000/svg" viewBox="0 0 418.00 216.00" role="img" fill="currentColor">
  <title>Corenation</title>
  <g transform="translate(16.00,16.00)">
<g transform="translate(0.000,0) scale(1.0)"><path d="M92.402,76.496A50.000,50.000 0 0 1 5.853,26.526L28.809,38.733A24.000,24.000 0 0 0 70.353,62.718Z"/><path d="M10.599,19.217A50.000,50.000 0 0 1 22.040,8.548L36.579,30.103A24.000,24.000 0 0 0 31.088,35.224Z"/><path d="M29.663,4.323A50.000,50.000 0 0 1 92.402,23.504L70.353,37.282A24.000,24.000 0 0 0 40.238,28.075Z"/></g><g transform="translate(114.000,0) scale(1.0)"><path fill-rule="evenodd" d="M100.000,50.000A50.000,50.000 0 1 1 0.000,50.000A50.000,50.000 0 1 1 100.000,50.000ZM74.000,50.000A24.000,24.000 0 1 0 26.000,50.000A24.000,24.000 0 1 0 74.000,50.000Z"/></g><g transform="translate(228.000,0) scale(1.0)"><rect x="0" y="0" width="26.0" height="100.0"/><path d="M29.40,0 H51.40A29,29 0 0 1 51.40,58H29.40 V32.00 H47.40A3.00,3.00 0 0 0 47.40,26.00H29.40Z"/><path d="M37.40,54 L76.00,100.0 L52.00,100.0 L31.40,68Z"/></g><g transform="translate(318.000,0) scale(1.0)"><path d="M0,0 H68.0 V26.0 H26.0 V37.0 H44.0 V63.0 H26.0 V74.0 H68.0 V100.0 H0Z"/></g><g transform="translate(0,112.0)"><g transform="translate(0.000,0) scale(0.72)"><rect x="0" y="0" width="26.0" height="100.0"/><rect x="50.0" y="0" width="26.0" height="100.0"/><path d="M26.00,0 L50.00,74.00 V100.00 L26.00,26.00Z"/></g><g transform="translate(61.200,0) scale(0.72)"><path fill-rule="evenodd" d="M6,100.0 L34,0 H52 L74,24 V100.0 H54 L48,70 H28 L20,100.0ZM32,50 L43,16 L54,50Z"/><rect x="22" y="66" width="40" height="16"/></g><g transform="translate(125.280,0) scale(0.72)"><path d="M0,0 H60.0 L72.0,26.0 H49.0 V100.0 H23.0 V26.0 H0Z"/></g><g transform="translate(183.600,0) scale(0.72)"><rect x="0" y="0" width="26.0" height="100.0"/></g><g transform="translate(208.800,0) scale(0.72)"><path fill-rule="evenodd" d="M100.000,50.000A50.000,50.000 0 1 1 0.000,50.000A50.000,50.000 0 1 1 100.000,50.000ZM74.000,50.000A24.000,24.000 0 1 0 26.000,50.000A24.000,24.000 0 1 0 74.000,50.000Z"/></g><g transform="translate(287.280,0) scale(0.72)"><rect x="0" y="0" width="26.0" height="100.0"/><rect x="50.0" y="0" width="26.0" height="100.0"/><path d="M26.00,0 L50.00,74.00 V100.00 L26.00,26.00Z"/></g></g>
  </g>
</svg>
